<svg width="1773" height="598" viewBox="0 0 1773 598" fill="none" xmlns="http://www.w3.org/2000/svg">
<g filter="url(#filter0_d)">
<path d="M188.671 111.897C115.189 239.626 279.489 325.328 363.704 239.626C428.805 173.376 393.427 45.9727 259.675 67.3983M232.428 317.088C234.905 340.161 243.987 377.244 218.392 426.688C195.001 471.874 202.319 495.767 203.531 547M346.365 304.727L409.938 469.539M429.753 218.201C463.604 239.626 481.602 258.085 497.454 292.366C513.306 326.647 546.166 355.818 573.412 366.531M445.44 154.748L689 194.302M139.132 283.301C127.573 335.217 83.8151 364.059 64 420.919L139.132 283.301Z" stroke="#FF7525" stroke-width="29"/>
</g>
<g filter="url(#filter1_d)">
<path d="M331.25 205.75C331.25 202.917 331.583 201 332.25 200C332.917 198.833 334.417 198.25 336.75 198.25C339.25 198.25 342.5 200.5 346.5 205C350.5 209.333 352.5 214.5 352.5 220.5C352.5 226.333 349.083 242.417 342.25 268.75C335.583 295.083 332.25 313 332.25 322.5C332.25 331.833 334 339.417 337.5 345.25C341 351.083 345.5 354 351 354C356.5 354 362.583 350.833 369.25 344.5C375.917 338.167 382.083 329.917 387.75 319.75C393.583 309.417 398.417 296.917 402.25 282.25C406.25 267.417 408.25 252.5 408.25 237.5C408.25 230.5 407.833 223.5 407 216.5C406.333 209.5 406 205.167 406 203.5C406 200 407.5 198.25 410.5 198.25C414.333 198.25 418.75 201.167 423.75 207C428.75 212.667 431.25 220 431.25 229C431.25 254.667 427.5 278.75 420 301.25C412.5 323.75 402.417 341.75 389.75 355.25C377.083 368.583 363.583 375.25 349.25 375.25C338.75 375.25 329.583 370.167 321.75 360C314.083 349.833 310.25 338.167 310.25 325C310.25 311.833 313.75 291.167 320.75 263C327.75 234.667 331.25 215.583 331.25 205.75Z" fill="#F7F7F7"/>
<path d="M527.914 249.5C535.081 249.5 541.247 254.083 546.414 263.25C551.747 272.417 554.414 281.917 554.414 291.75C554.414 301.417 551.581 311.167 545.914 321C540.247 330.667 533.247 339.333 524.914 347C516.581 354.667 507.331 361.083 497.164 366.25C487.164 371.25 477.914 373.75 469.414 373.75C466.081 373.75 462.914 373.333 459.914 372.5C459.247 375.333 458.081 380.417 456.414 387.75C454.747 395.083 453.331 401.167 452.164 406C450.997 410.833 449.664 416 448.164 421.5C445.164 432.833 442.497 438.5 440.164 438.5C437.831 438.5 435.414 436.667 432.914 433C430.247 429.5 428.914 426.333 428.914 423.5C428.914 420.667 431.581 408.5 436.914 387C452.914 322.167 460.914 278.5 460.914 256C460.914 251 462.747 248.5 466.414 248.5C469.414 248.5 472.997 250.75 477.164 255.25C481.497 259.583 483.664 264.417 483.664 269.75C483.664 272.417 483.331 275.333 482.664 278.5C497.497 259.167 512.581 249.5 527.914 249.5ZM466.914 354.25C475.747 354.25 485.247 351.25 495.414 345.25C505.747 339.25 514.497 331.333 521.664 321.5C528.997 311.5 532.664 301.583 532.664 291.75C532.664 277.917 529.414 271 522.914 271C516.414 271 507.581 276.583 496.414 287.75C485.414 298.917 476.664 313.417 470.164 331.25L464.414 354.25H466.914Z" fill="#F7F7F7"/>
<path d="M615.549 192C615.549 202.5 610.715 213.083 601.049 223.75C591.382 234.417 583.465 239.75 577.299 239.75C572.799 239.75 570.549 237.917 570.549 234.25C570.549 232.25 572.382 229.417 576.049 225.75C579.882 222.083 583.715 217.833 587.549 213C591.382 208.167 593.299 203.667 593.299 199.5C593.299 195.333 592.549 192.25 591.049 190.25C589.549 188.25 587.965 186.833 586.299 186C581.465 184 579.049 181.417 579.049 178.25C579.049 175.083 580.299 172.417 582.799 170.25C585.465 167.917 588.549 166.75 592.049 166.75C598.549 166.75 604.049 169.083 608.549 173.75C613.215 178.25 615.549 184.333 615.549 192Z" fill="#F7F7F7"/>
<path d="M661.582 330.75C677.582 303.583 690.582 283.417 700.582 270.25C710.749 256.917 718.999 250.25 725.332 250.25C731.832 250.25 737.915 253.667 743.582 260.5C749.415 267.333 752.332 274.583 752.332 282.25C752.332 294.25 749.582 308.917 744.082 326.25C734.082 358.25 725.082 374.25 717.082 374.25C713.415 374.25 711.582 371.75 711.582 366.75C711.582 363.25 713.332 356.167 716.832 345.5C720.499 334.667 723.832 324.083 726.832 313.75C729.999 303.25 731.582 295.417 731.582 290.25C731.582 284.917 730.749 281 729.082 278.5C727.582 276 725.999 274.75 724.332 274.75C722.832 274.75 721.249 275.25 719.582 276.25C717.915 277.25 715.999 278.917 713.832 281.25C711.832 283.583 709.915 285.917 708.082 288.25C706.249 290.417 703.915 293.583 701.082 297.75C698.415 301.917 696.165 305.5 694.332 308.5C692.499 311.333 689.832 315.5 686.332 321C682.832 326.5 680.165 330.667 678.332 333.5C676.499 336.333 674.082 340.167 671.082 345C668.082 349.833 665.665 353.583 663.832 356.25C662.165 358.917 660.249 361.833 658.082 365C653.915 371.167 650.582 374.25 648.082 374.25C645.749 374.25 642.999 372.417 639.832 368.75C636.665 364.917 635.082 361.583 635.082 358.75C635.082 357.917 635.665 355.667 636.832 352C639.999 342.333 643.499 330.417 647.332 316.25C651.165 301.917 653.249 285.667 653.582 267.5C654.082 255.333 655.832 249.25 658.832 249.25C662.499 249.25 666.165 251.167 669.832 255C673.499 258.833 675.332 263.083 675.332 267.75C675.332 272.25 673.915 281.083 671.082 294.25C668.415 307.25 665.249 319.417 661.582 330.75Z" fill="#F7F7F7"/>
<path d="M979.975 324.5C979.975 338.167 973.808 349.667 961.475 359C949.141 368.167 934.975 372.75 918.975 372.75C903.141 372.75 890.058 368.667 879.725 360.5C869.391 352.167 864.225 344.333 864.225 337C864.225 332 865.725 329.5 868.725 329.5C871.391 329.5 876.641 333.5 884.475 341.5C887.475 344.333 891.475 347 896.475 349.5C901.641 352 907.058 353.25 912.725 353.25C924.391 353.25 934.725 350.25 943.725 344.25C952.891 338.25 957.475 331.75 957.475 324.75C957.475 320.25 954.475 314.5 948.475 307.5C942.475 300.5 935.808 293.917 928.475 287.75C921.308 281.417 914.725 274.667 908.725 267.5C902.725 260.333 899.725 254.667 899.725 250.5C899.725 246.333 900.558 241.917 902.225 237.25C903.891 232.583 905.725 229.167 907.725 227C914.225 219.833 924.308 213.25 937.975 207.25C951.808 201.25 963.391 198.25 972.725 198.25C977.558 198.25 981.641 199.833 984.975 203C988.308 206.167 989.975 209.5 989.975 213C989.975 214.667 988.225 216 984.725 217C981.225 218 975.891 219.333 968.725 221C961.725 222.5 955.475 224.333 949.975 226.5C930.808 233.833 921.225 240.917 921.225 247.75C921.225 251.417 930.975 261.667 950.475 278.5C957.975 285 964.725 292.583 970.725 301.25C976.891 309.75 979.975 317.5 979.975 324.5Z" fill="#F7F7F7"/>
<path d="M1104.04 276.75L1102.29 323.75C1102.29 336.75 1102.87 346.167 1104.04 352C1111.2 344.5 1117.37 335.75 1122.54 325.75C1127.87 315.583 1131.79 306.167 1134.29 297.5C1136.95 288.833 1139.2 280.75 1141.04 273.25C1143.04 265.583 1144.87 259.5 1146.54 255C1148.2 250.5 1150.12 248.25 1152.29 248.25C1155.45 248.25 1158.29 249.583 1160.79 252.25C1163.29 254.75 1164.54 257.667 1164.54 261C1164.54 269.5 1160.7 283.5 1153.04 303C1146.54 321 1138.04 337.5 1127.54 352.5C1117.04 367.333 1108.87 374.75 1103.04 374.75C1097.2 374.75 1092.79 371.5 1089.79 365C1086.95 358.5 1085.37 346.083 1085.04 327.75C1084.7 309.25 1084.95 293.25 1085.79 279.75C1074.29 311.083 1064.12 334.75 1055.29 350.75C1046.45 366.75 1039.45 374.75 1034.29 374.75C1031.95 374.75 1029.45 373.667 1026.79 371.5C1024.29 369.333 1022.29 366.5 1020.79 363C1017.12 354.167 1013.95 337.333 1011.29 312.5C1008.79 287.5 1007.54 269.667 1007.54 259C1007.54 252.167 1009.62 248.75 1013.79 248.75C1017.45 248.75 1020.79 250.833 1023.79 255C1026.95 259.167 1028.79 263.333 1029.29 267.5C1029.79 271.5 1030.2 282.833 1030.54 301.5C1031.04 320 1032.62 336.5 1035.29 351C1042.12 339.167 1048.95 324.333 1055.79 306.5C1062.79 288.667 1068.45 274.667 1072.79 264.5C1077.29 254.333 1081.37 249.25 1085.04 249.25C1090.54 249.25 1095.04 251.833 1098.54 257C1102.2 262 1104.04 268.583 1104.04 276.75Z" fill="#F7F7F7"/>
<path d="M1260.25 257.25C1260.92 254.583 1261.58 252.75 1262.25 251.75C1262.92 250.75 1264.33 250.25 1266.5 250.25C1268.83 250.25 1271.58 252.417 1274.75 256.75C1278.08 261.083 1279.75 265.25 1279.75 269.25C1279.75 271.417 1276.08 284.25 1268.75 307.75C1261.42 331.25 1255.75 349.917 1251.75 363.75C1249.75 370.75 1246.92 374.25 1243.25 374.25C1241.08 374.25 1239.25 373.333 1237.75 371.5C1236.25 369.667 1235.5 366.333 1235.5 361.5C1235.5 356.667 1237.42 347.917 1241.25 335.25C1234.25 346.583 1226.67 355.917 1218.5 363.25C1210.33 370.583 1202.83 374.25 1196 374.25C1189.33 374.25 1183 371.083 1177 364.75C1171 358.417 1168 351.917 1168 345.25C1168 329.417 1172.58 309.667 1181.75 286C1191.08 262.167 1198.83 250.25 1205 250.25C1208 250.25 1210.58 251.667 1212.75 254.5C1215.08 257.167 1216.25 260.25 1216.25 263.75C1216.25 265.25 1214 270.667 1209.5 280C1205 289.167 1200.5 300 1196 312.5C1191.5 324.833 1189.25 335.667 1189.25 345C1189.25 347.667 1190.08 349.917 1191.75 351.75C1193.42 353.417 1195.42 354.25 1197.75 354.25C1204.08 354.25 1211.58 348.667 1220.25 337.5C1229.08 326.333 1237.08 313.333 1244.25 298.5C1251.42 283.667 1256.75 269.917 1260.25 257.25Z" fill="#F7F7F7"/>
<path d="M1320.11 349.25C1320.11 352.417 1321.94 354 1325.61 354C1331.94 354 1339.61 352.25 1348.61 348.75C1357.78 345.083 1362.86 343.25 1363.86 343.25C1366.86 343.25 1368.36 344.833 1368.36 348C1368.36 352.833 1363.36 358.417 1353.36 364.75C1343.53 371.083 1334.53 374.25 1326.36 374.25C1318.36 374.25 1311.69 372.083 1306.36 367.75C1301.03 363.25 1298.36 358.667 1298.36 354C1298.36 349.333 1299.36 343.417 1301.36 336.25C1303.36 328.917 1306.19 319.333 1309.86 307.5C1313.69 295.5 1316.69 285.583 1318.86 277.75C1311.03 279.583 1305.78 280.5 1303.11 280.5C1300.44 280.5 1297.78 279.167 1295.11 276.5C1292.61 273.667 1291.36 271 1291.36 268.5C1291.36 264.5 1302.19 260.667 1323.86 257C1326.86 243.167 1328.36 230.917 1328.36 220.25C1328.36 215.25 1330.03 212.75 1333.36 212.75C1336.19 212.75 1339.69 214.583 1343.86 218.25C1348.03 221.75 1350.11 225.75 1350.11 230.25C1350.11 234.75 1348.69 242.667 1345.86 254C1355.36 253.167 1362.94 252.75 1368.61 252.75C1378.61 252.75 1383.61 254.917 1383.61 259.25C1383.61 261.75 1380.86 263.833 1375.36 265.5C1370.03 267.167 1358.69 269.75 1341.36 273.25C1337.86 286.417 1333.44 301.5 1328.11 318.5C1322.78 335.333 1320.11 345.583 1320.11 349.25Z" fill="#F7F7F7"/>
<path d="M1460.29 250.25C1465.96 250.25 1471.29 253.417 1476.29 259.75C1481.29 265.917 1483.79 271.333 1483.79 276C1483.79 278.833 1482.46 280.25 1479.79 280.25C1477.96 280.25 1475.12 278.833 1471.29 276C1467.46 273 1463.54 271.5 1459.54 271.5C1455.54 271.5 1449.21 273.833 1440.54 278.5C1432.04 283.167 1427.79 288.083 1427.79 293.25C1427.79 297.083 1435.46 303.667 1450.79 313C1456.62 316.667 1461.87 321.417 1466.54 327.25C1471.37 332.917 1473.79 339.083 1473.79 345.75C1473.79 352.25 1469.21 358.667 1460.04 365C1451.04 371.167 1440.46 374.25 1428.29 374.25C1416.29 374.25 1405.62 371.333 1396.29 365.5C1387.12 359.667 1382.54 354.167 1382.54 349C1382.54 346.833 1383.04 345.167 1384.04 344C1385.21 342.667 1386.62 342 1388.29 342C1389.96 342 1392.29 343.083 1395.29 345.25C1404.29 351.75 1413.62 355 1423.29 355C1433.12 355 1440.21 353.917 1444.54 351.75C1448.87 349.417 1451.04 346.417 1451.04 342.75C1451.04 338.917 1448.62 334.917 1443.79 330.75C1438.96 326.417 1433.62 322.583 1427.79 319.25C1422.12 315.917 1416.87 311.833 1412.04 307C1407.21 302.167 1404.79 297.25 1404.79 292.25C1404.79 283.417 1411.71 274.25 1425.54 264.75C1439.54 255.083 1451.12 250.25 1460.29 250.25Z" fill="#F7F7F7"/>
<path d="M1535.49 374.25C1525.82 374.25 1516.74 370.5 1508.24 363C1499.74 355.333 1495.49 346.333 1495.49 336C1495.49 325.5 1498.99 313.417 1505.99 299.75C1512.99 286.083 1521.99 274.417 1532.99 264.75C1544.15 255.083 1554.99 250.25 1565.49 250.25C1572.32 250.25 1578.32 253.333 1583.49 259.5C1588.65 265.667 1591.24 271.083 1591.24 275.75C1591.24 277.083 1590.82 278.25 1589.99 279.25C1589.15 280.083 1587.9 280.5 1586.24 280.5C1584.74 280.5 1581.99 279 1577.99 276C1573.99 273 1570.4 271.5 1567.24 271.5C1558.24 271.5 1547.74 279.417 1535.74 295.25C1523.74 311.083 1517.74 324.917 1517.74 336.75C1517.74 341.917 1519.32 346 1522.49 349C1525.82 352 1531.07 353.5 1538.24 353.5C1545.57 353.5 1552.24 352.667 1558.24 351C1564.4 349.167 1569.15 347.417 1572.49 345.75C1575.82 343.917 1578.4 343 1580.24 343C1583.4 343 1584.99 344.583 1584.99 347.75C1584.99 352.583 1579.15 358.25 1567.49 364.75C1555.99 371.083 1545.32 374.25 1535.49 374.25Z" fill="#F7F7F7"/>
<path d="M1636.06 190C1636.06 183.5 1638.06 180.25 1642.06 180.25C1645.23 180.25 1648.56 182.75 1652.06 187.75C1655.73 192.75 1657.56 197.583 1657.56 202.25C1657.56 213.083 1654.81 231.583 1649.31 257.75C1643.98 283.75 1636.98 309.75 1628.31 335.75C1644.98 305.583 1658.9 283.833 1670.06 270.5C1681.4 257 1691.06 250.25 1699.06 250.25C1703.4 250.25 1708.4 254 1714.06 261.5C1719.9 269 1722.81 276.5 1722.81 284C1722.81 291.5 1720.73 302.75 1716.56 317.75C1706.23 355.417 1696.48 374.25 1687.31 374.25C1683.65 374.25 1681.81 371.75 1681.81 366.75C1681.81 361.75 1683.81 353.333 1687.81 341.5C1696.65 315.667 1701.06 298.25 1701.06 289.25C1701.06 286.25 1700.31 283.75 1698.81 281.75C1697.31 279.75 1695.48 278.75 1693.31 278.75C1691.15 278.75 1688.48 279.917 1685.31 282.25C1682.15 284.583 1678.31 288.667 1673.81 294.5C1668.15 302 1662.23 310.417 1656.06 319.75C1650.06 329.083 1646.4 334.75 1645.06 336.75C1643.9 338.583 1641.73 342 1638.56 347C1635.56 352 1633.31 355.75 1631.81 358.25C1630.31 360.583 1628.48 363.167 1626.31 366C1622.48 371.5 1619.56 374.25 1617.56 374.25C1615.56 374.25 1612.9 372.417 1609.56 368.75C1606.23 364.917 1604.56 361.75 1604.56 359.25C1604.56 356.583 1605.48 351.667 1607.31 344.5C1615.65 312.5 1620.9 290.583 1623.06 278.75C1631.73 235.417 1636.06 205.833 1636.06 190Z" fill="#F7F7F7"/>
</g>
<defs>
<filter id="filter0_d" x="0.307617" y="0.51355" width="741.017" height="596.83" filterUnits="userSpaceOnUse" color-interpolation-filters="sRGB">
<feFlood flood-opacity="0" result="BackgroundImageFix"/>
<feColorMatrix in="SourceAlpha" type="matrix" values="0 0 0 0 0 0 0 0 0 0 0 0 0 0 0 0 0 0 127 0"/>
<feOffset/>
<feGaussianBlur stdDeviation="25"/>
<feColorMatrix type="matrix" values="0 0 0 0 0 0 0 0 0 0 0 0 0 0 0 0 0 0 0.15 0"/>
<feBlend mode="normal" in2="BackgroundImageFix" result="effect1_dropShadow"/>
<feBlend mode="normal" in="SourceGraphic" in2="effect1_dropShadow" result="shape"/>
</filter>
<filter id="filter1_d" x="260.25" y="116.75" width="1512.56" height="371.75" filterUnits="userSpaceOnUse" color-interpolation-filters="sRGB">
<feFlood flood-opacity="0" result="BackgroundImageFix"/>
<feColorMatrix in="SourceAlpha" type="matrix" values="0 0 0 0 0 0 0 0 0 0 0 0 0 0 0 0 0 0 127 0"/>
<feOffset/>
<feGaussianBlur stdDeviation="25"/>
<feColorMatrix type="matrix" values="0 0 0 0 0 0 0 0 0 0 0 0 0 0 0 0 0 0 0.15 0"/>
<feBlend mode="normal" in2="BackgroundImageFix" result="effect1_dropShadow"/>
<feBlend mode="normal" in="SourceGraphic" in2="effect1_dropShadow" result="shape"/>
</filter>
</defs>
</svg>
