<?xml version="1.0" standalone="no"?>
<!DOCTYPE svg PUBLIC "-//W3C//DTD SVG 20010904//EN"
 "http://www.w3.org/TR/2001/REC-SVG-20010904/DTD/svg10.dtd">
<svg version="1.0" xmlns="http://www.w3.org/2000/svg"
 width="782.000000pt" height="782.000000pt" viewBox="0 0 782.000000 782.000000"
 preserveAspectRatio="xMidYMid meet">
<metadata>
Created by potrace 1.11, written by Peter Selinger 2001-2013
</metadata>
<g transform="translate(0.000000,782.000000) scale(0.100000,-0.100000)"
fill="#000000" stroke="none">
<path d="M2980 6943 c0 -4 -55 -8 -123 -9 -118 0 -217 -8 -285 -20 -33 -6 -33
-7 -27 -53 10 -66 12 -82 18 -116 21 -118 30 -182 29 -191 -4 -20 17 -66 27
-59 44 27 444 27 582 0 109 -21 347 -112 357 -137 2 -4 10 -8 17 -8 7 0 15 -3
17 -7 2 -5 22 -21 44 -36 42 -28 136 -120 172 -167 166 -217 228 -499 176
-805 -25 -150 -137 -388 -234 -499 -55 -64 -145 -149 -199 -189 -31 -23 -58
-45 -61 -48 -9 -10 -132 -76 -190 -101 -148 -65 -311 -96 -487 -92 -65 1 -129
5 -143 7 -14 2 -45 7 -70 11 -25 4 -70 15 -100 24 -30 9 -60 17 -67 18 -7 1
-26 9 -42 17 -17 9 -44 18 -61 22 -16 4 -30 11 -30 16 0 5 -7 9 -15 9 -41 0
-213 121 -315 221 -116 114 -236 331 -255 462 -14 95 -17 131 -17 197 0 67 9
148 27 235 6 29 40 135 66 205 8 19 32 72 55 117 23 44 39 86 35 91 -3 6 -33
25 -66 42 -33 18 -67 39 -76 46 -8 8 -19 14 -24 14 -4 0 -40 20 -80 44 -116
71 -105 75 -174 -67 -34 -68 -61 -129 -61 -136 0 -7 -7 -25 -15 -39 -14 -27
-58 -168 -69 -227 -4 -16 -9 -41 -12 -55 -31 -150 -34 -310 -10 -490 18 -138
109 -390 161 -450 8 -8 14 -19 15 -25 7 -35 171 -239 251 -310 144 -129 273
-209 499 -308 40 -17 238 -77 248 -75 4 1 18 -2 32 -5 83 -22 188 -31 335 -31
124 1 260 10 274 18 3 2 24 7 46 10 22 4 71 16 108 27 37 12 73 22 80 23 32 7
219 87 247 106 14 9 32 20 40 24 126 59 367 269 471 411 24 33 47 62 52 63 4
2 7 9 7 17 0 7 7 18 15 25 8 7 21 24 28 39 74 142 109 218 132 286 15 44 30
87 33 95 6 17 5 15 22 95 39 181 43 381 14 560 -9 53 -44 194 -56 223 -6 15
-12 32 -13 37 -9 39 -114 247 -134 265 -3 3 -23 30 -43 60 -37 54 -151 178
-216 233 -81 69 -240 163 -372 220 -49 21 -226 73 -280 82 -25 4 -54 9 -65 11
-29 6 -101 13 -168 18 -31 3 -62 8 -67 11 -6 3 -10 3 -10 -2z"/>
<path d="M4855 5838 c-2 -7 -14 -69 -25 -138 -12 -69 -23 -136 -26 -150 -2
-14 -7 -46 -10 -72 -6 -45 -5 -48 17 -49 13 0 31 -2 39 -4 8 -2 33 -6 55 -9
22 -4 49 -9 61 -11 12 -3 39 -7 60 -10 21 -4 50 -8 64 -11 114 -19 276 -45
315 -50 17 -2 53 -8 80 -14 48 -9 96 -17 160 -26 17 -2 41 -6 55 -9 14 -3 41
-7 60 -10 19 -3 46 -7 60 -10 13 -2 42 -7 65 -10 22 -3 81 -13 130 -21 50 -8
101 -17 115 -19 14 -2 57 -9 95 -15 39 -7 79 -13 90 -15 23 -4 89 -14 125 -21
14 -2 43 -6 65 -9 48 -7 80 -13 80 -15 0 -1 16 -3 35 -6 28 -3 194 -30 435
-70 17 -3 47 -7 68 -9 21 -2 42 -7 46 -10 5 -3 31 -7 58 -10 45 -5 65 -8 123
-20 14 -3 41 -7 60 -9 88 -11 136 -18 142 -22 3 -2 28 -7 55 -10 26 -3 67 -9
90 -13 l42 -8 6 51 c4 28 9 60 11 71 16 77 45 287 41 291 -3 3 -18 7 -33 9
-16 2 -45 6 -64 10 -19 3 -60 10 -90 15 -30 5 -71 12 -90 15 -19 3 -46 7 -60
9 -26 3 -158 24 -200 32 -29 5 -185 31 -305 50 -55 9 -124 21 -170 29 -16 3
-47 8 -67 10 -20 2 -45 6 -55 9 -10 3 -38 8 -63 11 -57 8 -55 7 -310 50 -118
20 -231 38 -250 41 -38 5 -74 10 -105 17 -11 3 -42 8 -68 11 -27 4 -57 9 -67
11 -9 2 -35 6 -56 9 -22 4 -68 11 -104 17 -36 6 -74 12 -85 14 -11 1 -36 5
-55 9 -54 9 -472 77 -495 80 -45 6 -111 18 -128 22 -9 3 -19 -1 -22 -8z"/>
<path d="M4630 4873 c-58 -92 -106 -170 -108 -174 -1 -3 45 -38 104 -78 59
-40 112 -77 118 -82 6 -5 31 -26 56 -46 84 -68 235 -229 285 -304 28 -41 55
-77 60 -81 6 -4 6 -8 1 -8 -5 0 -2 -8 6 -17 9 -10 55 -95 102 -189 134 -264
228 -397 416 -584 120 -121 286 -260 309 -260 6 0 11 -4 11 -8 0 -5 12 -15 28
-23 15 -8 29 -16 32 -19 16 -16 220 -119 236 -120 6 0 19 21 29 48 27 74 106
274 120 306 l13 29 -83 42 c-72 37 -129 73 -228 145 -32 23 -114 98 -178 162
-139 141 -226 264 -331 473 -41 83 -84 166 -95 185 -11 19 -29 50 -39 67 -11
18 -22 33 -26 33 -5 0 -8 5 -8 11 0 6 -12 27 -27 47 -16 20 -31 41 -35 47 -62
85 -202 234 -289 307 -59 50 -53 46 -144 113 -44 33 -81 63 -83 68 -2 4 -8 7
-14 7 -6 0 -33 16 -59 35 -27 19 -55 35 -62 35 -6 0 -59 -75 -117 -167z"/>
<path d="M903 4117 c-1 -23 -54 -178 -84 -245 -34 -75 -119 -225 -131 -230 -4
-2 -8 -8 -8 -13 0 -11 -81 -133 -92 -137 -5 -2 -8 -8 -8 -13 0 -9 -74 -116
-89 -129 -3 -3 -33 -45 -66 -95 -33 -49 -63 -92 -66 -95 -5 -4 -39 -57 -104
-160 -74 -117 -158 -275 -196 -373 -12 -29 -26 -63 -32 -77 -5 -14 -11 -29
-12 -35 -2 -5 -4 -16 -6 -23 -4 -12 65 -42 171 -74 19 -5 41 -15 48 -20 6 -6
12 -8 12 -5 0 3 36 -8 79 -23 l80 -29 11 32 c35 102 129 289 209 417 36 58 69
110 73 115 11 13 148 207 190 268 18 27 38 54 43 60 13 15 126 186 141 212 6
11 24 43 41 70 16 28 40 73 53 100 13 28 26 52 29 55 3 3 7 12 9 20 2 8 10 29
18 45 17 34 72 188 79 220 2 11 7 34 10 51 6 28 4 32 -22 37 -58 12 -309 68
-364 81 -9 3 -16 -1 -16 -7z"/>
<path d="M3740 3868 c-41 -16 -82 -31 -90 -35 -8 -3 -17 -7 -20 -7 -3 -1 -41
-15 -85 -33 -44 -17 -88 -34 -99 -37 -13 -4 -17 -13 -13 -29 5 -19 54 -150 88
-232 7 -16 13 -35 14 -41 2 -6 10 -27 18 -45 8 -19 52 -131 97 -249 44 -118
85 -224 89 -235 5 -11 23 -58 41 -105 18 -47 36 -94 41 -105 5 -11 49 -128
100 -260 50 -132 96 -253 103 -270 7 -16 30 -75 51 -130 21 -55 43 -113 50
-130 7 -16 25 -63 40 -102 28 -77 30 -78 90 -54 17 7 35 14 40 15 6 1 20 8 33
14 12 7 22 10 22 6 0 -3 6 -2 13 3 6 5 58 27 115 48 l103 38 -7 31 c-4 17 -10
37 -15 46 -8 13 -47 116 -156 405 -18 50 -38 99 -43 110 -5 11 -32 81 -60 155
-28 74 -66 173 -85 220 -18 47 -81 211 -140 365 -59 154 -115 299 -126 322
-10 24 -19 47 -19 52 0 5 -8 26 -17 47 -9 22 -18 44 -19 49 -2 6 -20 53 -41
105 l-38 96 -75 -28z"/>
<path d="M2347 3684 c-2 -2 -34 -6 -72 -10 -39 -3 -83 -8 -100 -10 -26 -4 -70
-8 -126 -13 -12 -1 -16 -9 -14 -28 3 -32 13 -122 20 -173 23 -173 23 -382 0
-500 -3 -13 -7 -42 -11 -64 -3 -22 -8 -44 -11 -48 -2 -5 -7 -20 -9 -35 -3 -15
-19 -65 -35 -112 -17 -47 -31 -90 -32 -96 -2 -5 -29 -64 -61 -130 -33 -66 -60
-122 -61 -125 -1 -3 -10 -23 -19 -45 -37 -82 -44 -101 -64 -160 -25 -73 -59
-201 -67 -253 -3 -21 -7 -49 -10 -62 -19 -99 -23 -316 -10 -580 4 -85 8 -199
10 -253 2 -54 6 -102 10 -105 3 -4 68 -5 143 -3 75 2 166 4 202 5 l65 1 -1 95
c-1 52 -4 165 -9 250 -8 171 -9 423 -1 484 15 116 39 218 67 284 10 23 19 44
19 47 3 21 24 71 107 242 34 73 63 136 63 140 1 4 9 26 20 48 11 22 19 47 20
55 0 9 5 21 12 28 7 7 9 12 5 12 -4 0 -1 16 7 35 9 20 15 38 16 40 0 3 0 6 1
8 10 33 49 220 54 262 4 28 8 64 11 80 11 84 5 360 -11 480 -2 17 -6 55 -10
85 -3 30 -8 64 -10 75 -2 11 -4 28 -4 38 -1 15 -9 18 -51 16 -28 -2 -51 -4
-53 -5z"/>
</g>
</svg>
