<svg width="894" height="264" viewBox="0 0 894 264" fill="none" xmlns="http://www.w3.org/2000/svg">
<path d="M23.5156 251.617C23.5156 251.813 25.5732 250.637 29.6885 248.09C33.9997 245.542 38.9967 242.211 44.6797 238.096C50.5586 233.785 56.5355 229.179 62.6104 224.28C68.6852 219.185 73.6823 214.384 77.6016 209.877C81.5208 205.37 83.5785 201.549 83.7744 198.413C84.1663 195.082 81.5208 192.926 75.8379 191.946C68.7832 190.966 62.8063 191.064 57.9072 192.24C53.2041 193.416 48.8929 194.788 44.9736 196.355C41.0544 197.923 37.3311 199.393 33.8037 200.765C30.4723 202.136 26.749 202.626 22.6338 202.234C14.0114 202.234 8.03451 199.589 4.70312 194.298C1.56771 188.811 0 181.462 0 172.252C0 163.042 2.05762 154.321 6.17285 146.091C10.2881 137.664 15.5791 130.414 22.0459 124.339C28.5127 118.264 35.9593 113.463 44.3857 109.936C52.8122 106.212 61.4346 104.351 70.2529 104.351C73.7803 104.351 76.8177 104.645 79.3652 105.232C81.9128 105.82 83.1865 108.074 83.1865 111.993C83.1865 114.737 82.0107 117.382 79.6592 119.93C77.3076 122.281 74.6621 123.457 71.7227 123.457C71.5267 123.457 71.0368 123.359 70.2529 123.163C69.4691 122.771 68.6852 122.281 67.9014 121.693C67.1175 121.105 66.3337 120.714 65.5498 120.518C64.766 120.126 64.276 119.93 64.0801 119.93C57.8092 118.166 51.7344 119.048 45.8555 122.575C39.9766 126.103 34.6855 130.904 29.9824 136.979C25.4753 142.857 21.8499 149.324 19.1064 156.379C16.363 163.238 14.9912 169.41 14.9912 174.897C14.9912 177.053 15.3831 178.817 16.167 180.188C17.1468 181.364 18.3226 182.246 19.6943 182.834C21.262 183.422 22.9277 183.814 24.6914 184.01C26.651 184.01 28.6107 184.01 30.5703 184.01C34.4896 184.01 38.4089 183.422 42.3281 182.246C46.4434 181.07 50.3626 179.699 54.0859 178.131C58.0052 176.563 61.9245 175.191 65.8438 174.016C69.959 172.84 74.1722 172.252 78.4834 172.252C80.443 172.252 82.5986 172.84 84.9502 174.016C87.3018 174.995 89.4574 176.563 91.417 178.719C93.3766 180.678 95.0423 183.03 96.4141 185.773C97.7858 188.321 98.5697 191.162 98.7656 194.298C99.9414 197.041 99.5495 200.667 97.5898 205.174C95.8262 209.681 93.0827 214.482 89.3594 219.577C85.6361 224.672 81.1289 229.865 75.8379 235.156C70.5469 240.251 65.2559 244.954 59.9648 249.266C54.6738 253.381 49.4808 256.712 44.3857 259.26C39.2907 262.003 34.9795 263.277 31.4521 263.081C27.5329 263.081 25.1813 261.905 24.3975 259.554C23.8096 257.202 23.5156 254.557 23.5156 251.617Z" fill="#FE4790"/>
<path d="M118.46 130.512C116.5 131.492 114.639 132.569 112.875 133.745C111.307 134.725 109.74 135.705 108.172 136.685C106.604 137.468 105.036 138.056 103.469 138.448C101.901 138.84 100.235 138.84 98.4717 138.448C97.2959 138.448 96.3161 137.762 95.5322 136.391C94.7484 134.823 94.1605 133.157 93.7686 131.394C93.1807 129.434 92.7887 127.572 92.5928 125.809C92.3968 123.849 92.3968 122.379 92.5928 121.399L120.812 105.232L122.575 29.9824C122.967 27.4349 124.535 26.4551 127.278 27.043C130.022 27.4349 132.863 28.0228 135.803 28.8066C136.195 28.8066 136.783 29.0026 137.566 29.3945C138.546 29.5905 139.232 29.7865 139.624 29.9824C139.232 35.2734 138.742 41.0544 138.154 47.3252C137.762 53.4001 137.37 59.5729 136.979 65.8438C136.587 71.9186 136.293 77.8955 136.097 83.7744C136.097 89.6533 136.391 94.9443 136.979 99.6475L181.07 87.3018C181.854 87.1058 182.442 87.6937 182.834 89.0654C183.422 90.2412 183.912 91.7109 184.304 93.4746C184.892 95.2383 185.284 97.002 185.479 98.7656C185.675 100.529 185.773 101.411 185.773 101.411L135.803 122.575C135.803 124.339 135.901 128.552 136.097 135.215C136.489 141.878 136.881 149.814 137.272 159.024C137.664 168.039 138.056 177.837 138.448 188.419C138.84 198.805 139.232 208.505 139.624 217.52C140.016 226.534 140.31 234.47 140.506 241.329C140.702 247.992 140.8 252.205 140.8 253.969C140.408 259.848 138.644 262.787 135.509 262.787C132.569 262.787 129.336 261.317 125.809 258.378L118.46 130.512Z" fill="#FE4790"/>
<path d="M196.062 250.147C196.062 237.41 195.768 223.986 195.18 209.877C194.788 195.768 194.298 181.56 193.71 167.255C193.318 152.754 193.22 138.546 193.416 124.633C193.612 110.719 194.494 97.6878 196.062 85.5381C196.453 85.3421 197.335 85.2441 198.707 85.2441C200.275 85.0482 201.353 84.9502 201.94 84.9502C204.684 84.9502 206.84 85.4401 208.407 86.4199C210.171 87.2038 211.053 89.0654 211.053 92.0049C211.053 103.567 210.955 116.206 210.759 129.924C210.759 143.445 210.661 157.261 210.465 171.37C210.465 185.284 210.465 199.099 210.465 212.816C210.465 226.534 210.661 238.978 211.053 250.147C211.249 253.479 210.563 255.634 208.995 256.614C207.623 257.79 205.86 258.378 203.704 258.378C201.353 258.378 199.393 257.79 197.825 256.614C196.257 255.634 195.67 253.479 196.062 250.147ZM189.595 39.6826C189.595 37.3311 190.379 35.7633 191.946 34.9795C193.514 34.1956 195.278 33.8037 197.237 33.8037C201.157 33.8037 203.606 35.0775 204.586 37.625C205.566 40.1725 206.056 43.112 206.056 46.4434C204.88 48.599 203.41 50.1667 201.646 51.1465C199.883 51.9303 198.021 52.1263 196.062 51.7344C194.298 51.1465 192.73 49.8727 191.358 47.9131C190.183 45.9535 189.595 43.21 189.595 39.6826Z" fill="#FE4790"/>
<path d="M237.508 241.035C238.88 232.021 239.761 220.753 240.153 207.231C240.741 193.71 240.937 179.307 240.741 164.021C240.741 148.736 240.447 132.961 239.859 116.696C239.271 100.431 238.488 85.0482 237.508 70.5469C236.528 55.8496 235.352 42.7201 233.98 31.1582C232.805 19.5964 231.531 10.484 230.159 3.82129C231.923 2.64551 233.393 1.76367 234.568 1.17578C235.94 0.391927 237.508 0 239.271 0C240.643 0 241.819 0.293945 242.799 0.881836C243.779 1.27376 244.562 2.25358 245.15 3.82129C249.07 42.2301 251.715 80.9329 253.087 119.93C254.655 158.926 255.83 197.727 256.614 236.332C256.614 238.096 256.614 240.545 256.614 243.681C256.614 246.62 256.516 248.188 256.32 248.384C253.577 249.756 251.127 250.441 248.972 250.441C246.816 250.245 244.856 249.658 243.093 248.678C241.329 247.502 239.957 246.228 238.978 244.856C237.998 243.485 237.508 242.211 237.508 241.035Z" fill="#FE4790"/>
<path d="M278.954 241.035C280.326 232.021 281.208 220.753 281.6 207.231C282.188 193.71 282.383 179.307 282.188 164.021C282.188 148.736 281.894 132.961 281.306 116.696C280.718 100.431 279.934 85.0482 278.954 70.5469C277.974 55.8496 276.799 42.7201 275.427 31.1582C274.251 19.5964 272.977 10.484 271.605 3.82129C273.369 2.64551 274.839 1.76367 276.015 1.17578C277.386 0.391927 278.954 0 280.718 0C282.09 0 283.265 0.293945 284.245 0.881836C285.225 1.27376 286.009 2.25358 286.597 3.82129C290.516 42.2301 293.161 80.9329 294.533 119.93C296.101 158.926 297.277 197.727 298.061 236.332C298.061 238.096 298.061 240.545 298.061 243.681C298.061 246.62 297.963 248.188 297.767 248.384C295.023 249.756 292.574 250.441 290.418 250.441C288.262 250.245 286.303 249.658 284.539 248.678C282.775 247.502 281.404 246.228 280.424 244.856C279.444 243.485 278.954 242.211 278.954 241.035Z" fill="#FE4790"/>
<path d="M320.4 241.035C321.772 232.021 322.654 220.753 323.046 207.231C323.634 193.71 323.83 179.307 323.634 164.021C323.634 148.736 323.34 132.961 322.752 116.696C322.164 100.431 321.38 85.0482 320.4 70.5469C319.421 55.8496 318.245 42.7201 316.873 31.1582C315.697 19.5964 314.424 10.484 313.052 3.82129C314.815 2.64551 316.285 1.76367 317.461 1.17578C318.833 0.391927 320.4 0 322.164 0C323.536 0 324.712 0.293945 325.691 0.881836C326.671 1.27376 327.455 2.25358 328.043 3.82129C331.962 42.2301 334.608 80.9329 335.979 119.93C337.547 158.926 338.723 197.727 339.507 236.332C339.507 238.096 339.507 240.545 339.507 243.681C339.507 246.62 339.409 248.188 339.213 248.384C336.469 249.756 334.02 250.441 331.864 250.441C329.709 250.245 327.749 249.658 325.985 248.678C324.222 247.502 322.85 246.228 321.87 244.856C320.89 243.485 320.4 242.211 320.4 241.035Z" fill="#FE4790"/>
<path d="M364.198 192.534C363.218 192.73 361.749 193.024 359.789 193.416C357.829 193.808 355.772 193.906 353.616 193.71C351.461 193.514 349.599 192.926 348.031 191.946C346.268 190.966 345.386 189.301 345.386 186.949C345.386 185.577 345.68 184.598 346.268 184.01C346.855 183.422 347.835 182.54 349.207 181.364C353.518 177.837 357.144 173.33 360.083 167.843C363.218 162.16 366.06 156.183 368.607 149.912C371.155 143.445 373.8 137.076 376.544 130.806C379.483 124.339 382.815 118.558 386.538 113.463C390.261 108.368 394.867 104.253 400.354 101.117C405.84 97.9818 412.601 96.512 420.636 96.708C423.967 96.708 427.69 97.4919 431.806 99.0596C435.921 100.627 439.742 102.783 443.27 105.526C446.797 108.074 449.736 111.209 452.088 114.933C454.439 118.656 455.615 122.771 455.615 127.278C456.595 128.846 455.615 131.1 452.676 134.039C449.932 136.979 446.111 140.212 441.212 143.739C436.313 147.071 430.728 150.598 424.457 154.321C418.382 157.849 412.503 161.18 406.82 164.315C401.137 167.451 396.14 170.194 391.829 172.546C387.518 174.897 384.676 176.661 383.305 177.837C382.325 179.797 381.541 182.05 380.953 184.598C380.365 187.145 379.875 189.595 379.483 191.946C379.287 194.102 379.091 196.16 378.896 198.119C378.896 199.883 378.896 201.255 378.896 202.234C378.896 205.958 378.7 210.073 378.308 214.58C378.112 219.087 378.308 223.398 378.896 227.514C379.679 231.433 381.345 234.764 383.893 237.508C386.44 240.055 390.751 241.329 396.826 241.329C403.293 241.329 409.368 239.761 415.051 236.626C420.734 233.295 426.025 229.277 430.924 224.574C435.823 219.871 440.232 214.776 444.151 209.289C448.267 203.802 451.892 198.707 455.027 194.004C458.359 189.105 461.298 185.088 463.846 181.952C466.393 178.817 468.549 177.249 470.312 177.249C472.272 177.249 474.33 177.641 476.485 178.425C478.837 179.013 480.013 180.58 480.013 183.128C480.013 186.655 478.543 190.868 475.604 195.768C472.86 200.667 469.137 205.86 464.434 211.347C459.926 216.834 454.635 222.321 448.561 227.808C442.682 233.099 436.705 237.9 430.63 242.211C424.555 246.326 418.578 249.756 412.699 252.499C406.82 255.047 401.627 256.32 397.12 256.32C388.302 256.32 381.639 254.165 377.132 249.854C372.625 245.542 369.391 240.153 367.432 233.687C365.668 227.22 364.688 220.361 364.492 213.11C364.492 205.664 364.394 198.805 364.198 192.534ZM418.284 113.169C414.953 113.169 411.425 114.835 407.702 118.166C403.979 121.301 400.451 125.221 397.12 129.924C393.985 134.431 391.339 139.134 389.184 144.033C387.224 148.736 386.244 152.656 386.244 155.791C389.184 155.791 393.397 154.713 398.884 152.558C404.567 150.206 410.152 147.365 415.639 144.033C421.126 140.702 425.927 137.174 430.042 133.451C434.157 129.728 436.215 126.201 436.215 122.869C436.215 121.105 435.529 119.636 434.157 118.46C432.785 117.284 431.12 116.304 429.16 115.521C427.396 114.737 425.535 114.149 423.575 113.757C421.616 113.365 419.852 113.169 418.284 113.169Z" fill="#FE4790"/>
<path d="M499.413 253.969C498.433 238.488 498.041 222.027 498.237 204.586C498.629 187.145 499.119 168.333 499.707 148.148C500.295 127.964 500.785 106.114 501.177 82.5986C501.765 58.887 501.863 33.0199 501.471 4.99707C503.626 4.99707 505.88 4.89909 508.231 4.70312C510.583 4.3112 512.641 4.21322 514.404 4.40918C516.364 4.60514 517.932 5.19303 519.107 6.17285C520.479 7.15267 521.165 8.91634 521.165 11.4639C521.165 18.7145 520.871 27.141 520.283 36.7432C519.891 46.1494 519.303 56.5355 518.52 67.9014C517.736 79.0713 517.05 91.123 516.462 104.057C516.07 116.99 515.874 130.61 515.874 144.915C522.733 135.901 529.102 128.552 534.98 122.869C540.859 117.186 546.444 112.679 551.735 109.348C557.026 105.82 562.219 103.665 567.314 102.881C572.41 101.901 577.407 101.607 582.306 101.999C587.989 101.999 592.594 103.567 596.121 106.702C599.844 109.838 602.686 113.757 604.646 118.46C606.605 123.163 607.977 128.454 608.761 134.333C609.545 140.016 609.937 145.601 609.937 151.088C609.937 155.007 609.643 159.22 609.055 163.728C608.663 168.039 607.585 172.84 605.821 178.131C604.058 183.422 601.314 188.909 597.591 194.592C594.063 200.079 589.066 205.958 582.6 212.229C576.133 218.499 567.902 224.966 557.908 231.629C548.11 238.292 536.156 245.15 522.047 252.205C517.344 253.577 513.522 254.459 510.583 254.851C507.84 255.047 505.586 255.145 503.822 255.145C502.255 254.949 501.079 254.753 500.295 254.557C499.707 254.361 499.413 254.165 499.413 253.969ZM512.053 236.332C513.033 235.744 515.678 234.47 519.989 232.511C524.3 230.355 529.396 227.612 535.274 224.28C541.153 220.949 547.522 216.932 554.381 212.229C561.24 207.525 567.51 202.038 573.193 195.768C579.072 189.497 584.069 182.442 588.185 174.604C592.3 166.765 594.749 158.143 595.533 148.736C595.533 145.993 595.141 143.053 594.357 139.918C593.574 136.783 592.3 133.843 590.536 131.1C588.968 128.356 586.911 126.103 584.363 124.339C581.816 122.379 578.778 121.399 575.251 121.399C568 121.399 561.142 123.359 554.675 127.278C548.404 131.198 542.623 136.097 537.332 141.976C532.041 147.854 527.338 154.223 523.223 161.082C519.107 167.745 515.776 173.918 513.229 179.601L512.053 236.332Z" fill="#FE4790"/>
<path d="M636.392 192.534C635.412 192.73 633.942 193.024 631.982 193.416C630.023 193.808 627.965 193.906 625.81 193.71C623.654 193.514 621.792 192.926 620.225 191.946C618.461 190.966 617.579 189.301 617.579 186.949C617.579 185.577 617.873 184.598 618.461 184.01C619.049 183.422 620.029 182.54 621.4 181.364C625.712 177.837 629.337 173.33 632.276 167.843C635.412 162.16 638.253 156.183 640.801 149.912C643.348 143.445 645.994 137.076 648.737 130.806C651.677 124.339 655.008 118.558 658.731 113.463C662.455 108.368 667.06 104.253 672.547 101.117C678.034 97.9818 684.795 96.512 692.829 96.708C696.16 96.708 699.884 97.4919 703.999 99.0596C708.114 100.627 711.936 102.783 715.463 105.526C718.99 108.074 721.93 111.209 724.281 114.933C726.633 118.656 727.809 122.771 727.809 127.278C728.788 128.846 727.809 131.1 724.869 134.039C722.126 136.979 718.304 140.212 713.405 143.739C708.506 147.071 702.921 150.598 696.65 154.321C690.576 157.849 684.697 161.18 679.014 164.315C673.331 167.451 668.334 170.194 664.022 172.546C659.711 174.897 656.87 176.661 655.498 177.837C654.518 179.797 653.734 182.05 653.146 184.598C652.559 187.145 652.069 189.595 651.677 191.946C651.481 194.102 651.285 196.16 651.089 198.119C651.089 199.883 651.089 201.255 651.089 202.234C651.089 205.958 650.893 210.073 650.501 214.58C650.305 219.087 650.501 223.398 651.089 227.514C651.873 231.433 653.538 234.764 656.086 237.508C658.633 240.055 662.945 241.329 669.02 241.329C675.486 241.329 681.561 239.761 687.244 236.626C692.927 233.295 698.218 229.277 703.117 224.574C708.016 219.871 712.425 214.776 716.345 209.289C720.46 203.802 724.085 198.707 727.221 194.004C730.552 189.105 733.492 185.088 736.039 181.952C738.587 178.817 740.742 177.249 742.506 177.249C744.465 177.249 746.523 177.641 748.679 178.425C751.03 179.013 752.206 180.58 752.206 183.128C752.206 186.655 750.736 190.868 747.797 195.768C745.053 200.667 741.33 205.86 736.627 211.347C732.12 216.834 726.829 222.321 720.754 227.808C714.875 233.099 708.898 237.9 702.823 242.211C696.748 246.326 690.771 249.756 684.893 252.499C679.014 255.047 673.821 256.32 669.313 256.32C660.495 256.32 653.832 254.165 649.325 249.854C644.818 245.542 641.585 240.153 639.625 233.687C637.861 227.22 636.882 220.361 636.686 213.11C636.686 205.664 636.588 198.805 636.392 192.534ZM690.478 113.169C687.146 113.169 683.619 114.835 679.896 118.166C676.172 121.301 672.645 125.221 669.313 129.924C666.178 134.431 663.533 139.134 661.377 144.033C659.417 148.736 658.438 152.656 658.438 155.791C661.377 155.791 665.59 154.713 671.077 152.558C676.76 150.206 682.345 147.365 687.832 144.033C693.319 140.702 698.12 137.174 702.235 133.451C706.351 129.728 708.408 126.201 708.408 122.869C708.408 121.105 707.722 119.636 706.351 118.46C704.979 117.284 703.313 116.304 701.354 115.521C699.59 114.737 697.728 114.149 695.769 113.757C693.809 113.365 692.045 113.169 690.478 113.169Z" fill="#FE4790"/>
<path d="M779.249 252.205C777.093 225.75 775.134 199.295 773.37 172.84C771.802 146.189 770.039 118.558 768.079 89.9473C768.079 85.2441 770.627 82.8926 775.722 82.8926H778.073C778.661 82.8926 779.347 83.6764 780.131 85.2441C780.915 86.8118 781.699 89.7513 782.482 94.0625C783.462 98.1777 784.442 104.547 785.422 113.169C786.598 121.595 787.969 132.667 789.537 146.385C791.105 160.102 792.868 177.249 794.828 197.825C798.943 184.5 802.177 171.566 804.528 159.024C806.88 146.483 809.917 135.117 813.641 124.927C817.364 114.541 822.557 105.428 829.22 97.5898C836.078 89.7513 845.877 83.9704 858.614 80.2471C865.669 81.4229 871.352 85.734 875.663 93.1807C879.974 100.431 883.404 109.446 885.951 120.224C888.499 131.002 890.262 142.759 891.242 155.497C892.222 168.039 892.81 180.09 893.006 191.652C893.202 203.214 893.3 213.6 893.3 222.811C893.3 231.825 893.496 238.292 893.888 242.211C893.3 243.779 892.418 245.15 891.242 246.326C890.066 247.502 888.695 248.384 887.127 248.972C885.755 249.364 884.383 249.462 883.012 249.266C881.64 248.874 880.366 247.796 879.19 246.032C879.19 243.877 878.994 239.467 878.603 232.805C878.211 226.142 877.721 218.401 877.133 209.583C876.545 200.569 875.859 191.064 875.075 181.07C874.487 170.88 873.899 161.376 873.312 152.558C872.92 143.543 872.528 135.705 872.136 129.042C871.744 122.379 871.45 117.97 871.254 115.814C867.139 108.564 863.023 104.449 858.908 103.469C854.989 102.489 850.972 103.763 846.856 107.29C842.937 110.817 839.116 116.206 835.393 123.457C831.669 130.708 828.142 138.938 824.811 148.148C821.479 157.163 818.344 166.667 815.404 176.661C812.465 186.655 809.917 196.355 807.762 205.762C805.606 214.972 803.744 223.398 802.177 231.041C800.805 238.488 799.923 244.269 799.531 248.384C798.943 249.756 797.67 251.127 795.71 252.499C793.946 253.675 791.987 254.557 789.831 255.145C787.871 255.732 785.814 255.928 783.658 255.732C781.699 255.34 780.229 254.165 779.249 252.205Z" fill="#FE4790"/>
</svg>
